<svg xmlns="http://www.w3.org/2000/svg" xmlns:svg="http://www.w3.org/2000/svg" id="svg2" width="960" height="768" version="1.1" viewBox="0 0 960 768" xml:space="preserve"><metadata id="metadata8"/><defs id="defs6"><clipPath id="clipPath22" clipPathUnits="userSpaceOnUse"><path id="path20" d="M 0,0 H 720.00928 V 576.0074 H 0 Z"/></clipPath><clipPath id="clipPath38" clipPathUnits="userSpaceOnUse"><path id="path36" d="M 90.00114,63.36116 H 648.00833 V 506.88713 H 90.00114 Z"/></clipPath><clipPath id="clipPath68" clipPathUnits="userSpaceOnUse"><path id="path66" d="M 90.00114,63.36116 H 648.00833 V 506.88713 H 90.00114 Z"/></clipPath><clipPath id="clipPath98" clipPathUnits="userSpaceOnUse"><path id="path96" d="M 90.00114,63.36116 H 648.00833 V 506.88713 H 90.00114 Z"/></clipPath><clipPath id="clipPath128" clipPathUnits="userSpaceOnUse"><path id="path126" d="M 90.00114,63.36116 H 648.00833 V 506.88713 H 90.00114 Z"/></clipPath><clipPath id="clipPath158" clipPathUnits="userSpaceOnUse"><path id="path156" d="M 90.00114,63.36116 H 648.00833 V 506.88713 H 90.00114 Z"/></clipPath><clipPath id="clipPath188" clipPathUnits="userSpaceOnUse"><path id="path186" d="M 90.00114,63.36116 H 648.00833 V 506.88713 H 90.00114 Z"/></clipPath><clipPath id="clipPath218" clipPathUnits="userSpaceOnUse"><path id="path216" d="M 90.00114,63.36116 H 648.00833 V 506.88713 H 90.00114 Z"/></clipPath><clipPath id="clipPath268" clipPathUnits="userSpaceOnUse"><path id="path266" d="M 90.00114,63.36116 H 648.00833 V 506.88713 H 90.00114 Z"/></clipPath><clipPath id="clipPath298" clipPathUnits="userSpaceOnUse"><path id="path296" d="M 90.00114,63.36116 H 648.00833 V 506.88713 H 90.00114 Z"/></clipPath><clipPath id="clipPath328" clipPathUnits="userSpaceOnUse"><path id="path326" d="M 90.00114,63.36116 H 648.00833 V 506.88713 H 90.00114 Z"/></clipPath><clipPath id="clipPath358" clipPathUnits="userSpaceOnUse"><path id="path356" d="M 90.00114,63.36116 H 648.00833 V 506.88713 H 90.00114 Z"/></clipPath><clipPath id="clipPath388" clipPathUnits="userSpaceOnUse"><path id="path386" d="M 90.00114,63.36116 H 648.00833 V 506.88713 H 90.00114 Z"/></clipPath><clipPath id="clipPath418" clipPathUnits="userSpaceOnUse"><path id="path416" d="M 90.00114,63.36116 H 648.00833 V 506.88713 H 90.00114 Z"/></clipPath><clipPath id="clipPath448" clipPathUnits="userSpaceOnUse"><path id="path446" d="M 90.00114,63.36116 H 648.00833 V 506.88713 H 90.00114 Z"/></clipPath><clipPath id="clipPath478" clipPathUnits="userSpaceOnUse"><path id="path476" d="M 90.00114,63.36116 H 648.00833 V 506.88713 H 90.00114 Z"/></clipPath><clipPath id="clipPath488" clipPathUnits="userSpaceOnUse"><path id="path486" d="M 90.00114,63.36116 H 648.00833 V 506.88713 H 90.00114 Z"/></clipPath><clipPath id="clipPath498" clipPathUnits="userSpaceOnUse"><path id="path496" d="M 90.00114,63.36116 H 648.00833 V 506.88713 H 90.00114 Z"/></clipPath><clipPath id="clipPath508" clipPathUnits="userSpaceOnUse"><path id="path506" d="M 90.00114,63.36116 H 648.00833 V 506.88713 H 90.00114 Z"/></clipPath><clipPath id="clipPath518" clipPathUnits="userSpaceOnUse"><path id="path516" d="M 90.00114,63.36116 H 648.00833 V 506.88713 H 90.00114 Z"/></clipPath><clipPath id="clipPath528" clipPathUnits="userSpaceOnUse"><path id="path526" d="M 90.00114,63.36116 H 648.00833 V 506.88713 H 90.00114 Z"/></clipPath><clipPath id="clipPath538" clipPathUnits="userSpaceOnUse"><path id="path536" d="M 90.00114,63.36116 H 648.00833 V 506.88713 H 90.00114 Z"/></clipPath><clipPath id="clipPath548" clipPathUnits="userSpaceOnUse"><path id="path546" d="M 90.00114,63.36116 H 648.00833 V 506.88713 H 90.00114 Z"/></clipPath><clipPath id="clipPath558" clipPathUnits="userSpaceOnUse"><path id="path556" d="M 90.00114,63.36116 H 648.00833 V 506.88713 H 90.00114 Z"/></clipPath><clipPath id="clipPath568" clipPathUnits="userSpaceOnUse"><path id="path566" d="M 90.00114,63.36116 H 648.00833 V 506.88713 H 90.00114 Z"/></clipPath><clipPath id="clipPath578" clipPathUnits="userSpaceOnUse"><path id="path576" d="M 90.00114,63.36116 H 648.00833 V 506.88713 H 90.00114 Z"/></clipPath><clipPath id="clipPath588" clipPathUnits="userSpaceOnUse"><path id="path586" d="M 90.00114,63.36116 H 648.00833 V 506.88713 H 90.00114 Z"/></clipPath><clipPath id="clipPath598" clipPathUnits="userSpaceOnUse"><path id="path596" d="M 90.00114,63.36116 H 648.00833 V 506.88713 H 90.00114 Z"/></clipPath><clipPath id="clipPath608" clipPathUnits="userSpaceOnUse"><path id="path606" d="M 90.00114,63.36116 H 648.00833 V 506.88713 H 90.00114 Z"/></clipPath><clipPath id="clipPath618" clipPathUnits="userSpaceOnUse"><path id="path616" d="M 90.00114,63.36116 H 648.00833 V 506.88713 H 90.00114 Z"/></clipPath><clipPath id="clipPath628" clipPathUnits="userSpaceOnUse"><path id="path626" d="M 90.00114,63.36116 H 648.00833 V 506.88713 H 90.00114 Z"/></clipPath><clipPath id="clipPath638" clipPathUnits="userSpaceOnUse"><path id="path636" d="M 90.00114,63.36116 H 648.00833 V 506.88713 H 90.00114 Z"/></clipPath><clipPath id="clipPath648" clipPathUnits="userSpaceOnUse"><path id="path646" d="M 90.00114,63.36116 H 648.00833 V 506.88713 H 90.00114 Z"/></clipPath><clipPath id="clipPath658" clipPathUnits="userSpaceOnUse"><path id="path656" d="M 90.00114,63.36116 H 648.00833 V 506.88713 H 90.00114 Z"/></clipPath><clipPath id="clipPath668" clipPathUnits="userSpaceOnUse"><path id="path666" d="M 90.00114,63.36116 H 648.00833 V 506.88713 H 90.00114 Z"/></clipPath><clipPath id="clipPath678" clipPathUnits="userSpaceOnUse"><path id="path676" d="M 90.00114,63.36116 H 648.00833 V 506.88713 H 90.00114 Z"/></clipPath><clipPath id="clipPath688" clipPathUnits="userSpaceOnUse"><path id="path686" d="M 90.00114,63.36116 H 648.00833 V 506.88713 H 90.00114 Z"/></clipPath><clipPath id="clipPath698" clipPathUnits="userSpaceOnUse"><path id="path696" d="M 90.00114,63.36116 H 648.00833 V 506.88713 H 90.00114 Z"/></clipPath><clipPath id="clipPath708" clipPathUnits="userSpaceOnUse"><path id="path706" d="M 90.00114,63.36116 H 648.00833 V 506.88713 H 90.00114 Z"/></clipPath><clipPath id="clipPath718" clipPathUnits="userSpaceOnUse"><path id="path716" d="M 90.00114,63.36116 H 648.00833 V 506.88713 H 90.00114 Z"/></clipPath><clipPath id="clipPath728" clipPathUnits="userSpaceOnUse"><path id="path726" d="M 90.00114,63.36116 H 648.00833 V 506.88713 H 90.00114 Z"/></clipPath><clipPath id="clipPath738" clipPathUnits="userSpaceOnUse"><path id="path736" d="M 90.00114,63.36116 H 648.00833 V 506.88713 H 90.00114 Z"/></clipPath><clipPath id="clipPath748" clipPathUnits="userSpaceOnUse"><path id="path746" d="M 90.00114,63.36116 H 648.00833 V 506.88713 H 90.00114 Z"/></clipPath><clipPath id="clipPath758" clipPathUnits="userSpaceOnUse"><path id="path756" d="M 90.00114,63.36116 H 648.00833 V 506.88713 H 90.00114 Z"/></clipPath><clipPath id="clipPath768" clipPathUnits="userSpaceOnUse"><path id="path766" d="M 90.00114,63.36116 H 648.00833 V 506.88713 H 90.00114 Z"/></clipPath><clipPath id="clipPath778" clipPathUnits="userSpaceOnUse"><path id="path776" d="M 90.00114,63.36116 H 648.00833 V 506.88713 H 90.00114 Z"/></clipPath><clipPath id="clipPath788" clipPathUnits="userSpaceOnUse"><path id="path786" d="M 90.00114,63.36116 H 648.00833 V 506.88713 H 90.00114 Z"/></clipPath><clipPath id="clipPath798" clipPathUnits="userSpaceOnUse"><path id="path796" d="M 90.00114,63.36116 H 648.00833 V 506.88713 H 90.00114 Z"/></clipPath><clipPath id="clipPath808" clipPathUnits="userSpaceOnUse"><path id="path806" d="M 90.00114,63.36116 H 648.00833 V 506.88713 H 90.00114 Z"/></clipPath><clipPath id="clipPath818" clipPathUnits="userSpaceOnUse"><path id="path816" d="M 90.00114,63.36116 H 648.00833 V 506.88713 H 90.00114 Z"/></clipPath><clipPath id="clipPath828" clipPathUnits="userSpaceOnUse"><path id="path826" d="M 90.00114,63.36116 H 648.00833 V 506.88713 H 90.00114 Z"/></clipPath><clipPath id="clipPath838" clipPathUnits="userSpaceOnUse"><path id="path836" d="M 90.00114,63.36116 H 648.00833 V 506.88713 H 90.00114 Z"/></clipPath><clipPath id="clipPath848" clipPathUnits="userSpaceOnUse"><path id="path846" d="M 90.00114,63.36116 H 648.00833 V 506.88713 H 90.00114 Z"/></clipPath><clipPath id="clipPath858" clipPathUnits="userSpaceOnUse"><path id="path856" d="M 90.00114,63.36116 H 648.00833 V 506.88713 H 90.00114 Z"/></clipPath><clipPath id="clipPath868" clipPathUnits="userSpaceOnUse"><path id="path866" d="M 90.00114,63.36116 H 648.00833 V 506.88713 H 90.00114 Z"/></clipPath><clipPath id="clipPath878" clipPathUnits="userSpaceOnUse"><path id="path876" d="M 90.00114,63.36116 H 648.00833 V 506.88713 H 90.00114 Z"/></clipPath><clipPath id="clipPath888" clipPathUnits="userSpaceOnUse"><path id="path886" d="M 90.00114,63.36116 H 648.00833 V 506.88713 H 90.00114 Z"/></clipPath><clipPath id="clipPath898" clipPathUnits="userSpaceOnUse"><path id="path896" d="M 90.00114,63.36116 H 648.00833 V 506.88713 H 90.00114 Z"/></clipPath><clipPath id="clipPath908" clipPathUnits="userSpaceOnUse"><path id="path906" d="M 90.00114,63.36116 H 648.00833 V 506.88713 H 90.00114 Z"/></clipPath><clipPath id="clipPath918" clipPathUnits="userSpaceOnUse"><path id="path916" d="M 90.00114,63.36116 H 648.00833 V 506.88713 H 90.00114 Z"/></clipPath><clipPath id="clipPath928" clipPathUnits="userSpaceOnUse"><path id="path926" d="M 90.00114,63.36116 H 648.00833 V 506.88713 H 90.00114 Z"/></clipPath><clipPath id="clipPath938" clipPathUnits="userSpaceOnUse"><path id="path936" d="M 90.00114,63.36116 H 648.00833 V 506.88713 H 90.00114 Z"/></clipPath><clipPath id="clipPath948" clipPathUnits="userSpaceOnUse"><path id="path946" d="M 90.00114,63.36116 H 648.00833 V 506.88713 H 90.00114 Z"/></clipPath><clipPath id="clipPath958" clipPathUnits="userSpaceOnUse"><path id="path956" d="M 90.00114,63.36116 H 648.00833 V 506.88713 H 90.00114 Z"/></clipPath><clipPath id="clipPath968" clipPathUnits="userSpaceOnUse"><path id="path966" d="M 90.00114,63.36116 H 648.00833 V 506.88713 H 90.00114 Z"/></clipPath><clipPath id="clipPath978" clipPathUnits="userSpaceOnUse"><path id="path976" d="M 90.00114,63.36116 H 648.00833 V 506.88713 H 90.00114 Z"/></clipPath></defs><g id="g10" transform="matrix(1.3333333,0,0,-1.3333333,0,768)"><g id="g12" transform="translate(72,504)"><g id="g14" transform="translate(-72,-504)"><g id="g16"><g id="g18" clip-path="url(#clipPath22)"><g id="g24"><path id="path26" d="M 0,0 H 720.00928 V 576.0074 H 0 Z" style="fill:#fff;fill-opacity:1;fill-rule:nonzero;stroke:none"/></g><g id="g28"><path id="path30" d="M 90.00114,63.36116 H 648.00835 V 506.88603 H 90.00114 Z" style="fill:#eaeaf2;fill-opacity:1;fill-rule:nonzero;stroke:none"/></g><g id="g32"><g id="g34" clip-path="url(#clipPath38)"><path id="path40" d="M 146.51115,63.36116 V 506.88603" style="fill:none;stroke:#fff;stroke-width:1.00002003;stroke-linecap:round;stroke-linejoin:round;stroke-miterlimit:10;stroke-dasharray:none;stroke-opacity:1"/></g></g><g id="g42"><g id="g44"><g id="g46" transform="scale(-1)"><g id="g50" transform="rotate(180,-36,-252)"><g id="g54" transform="translate(143.771,46.562)"><text id="text58" transform="matrix(1,0,0,-1,-72,-504)" style="font-variant:normal;font-size:10.95890045px;font-family:LatinModernMath-Regular-Identity;-inkscape-font-specification:LatinModernMath-Regular-Identity-H;writing-mode:lr-tb;fill:#262626;fill-opacity:1;fill-rule:nonzero;stroke:none"><tspan id="tspan56" x="0" y="0">0</tspan></text></g></g></g></g></g><g id="g62"><g id="g64" clip-path="url(#clipPath68)"><path id="path70" d="M 224.5788,63.36116 V 506.88603" style="fill:none;stroke:#fff;stroke-width:1.00002003;stroke-linecap:round;stroke-linejoin:round;stroke-miterlimit:10;stroke-dasharray:none;stroke-opacity:1"/></g></g><g id="g72"><g id="g74"><g id="g76" transform="scale(-1)"><g id="g80" transform="rotate(180,-36,-252)"><g id="g84" transform="translate(219.099,46.562)"><text id="text88" transform="matrix(1,0,0,-1,-72,-504)" style="font-variant:normal;font-size:10.95890045px;font-family:LatinModernMath-Regular-Identity;-inkscape-font-specification:LatinModernMath-Regular-Identity-H;writing-mode:lr-tb;fill:#262626;fill-opacity:1;fill-rule:nonzero;stroke:none"><tspan id="tspan86" x="0 5.479" y="0">20</tspan></text></g></g></g></g></g><g id="g92"><g id="g94" clip-path="url(#clipPath98)"><path id="path100" d="M 302.64757,63.36116 V 506.88603" style="fill:none;stroke:#fff;stroke-width:1.00002003;stroke-linecap:round;stroke-linejoin:round;stroke-miterlimit:10;stroke-dasharray:none;stroke-opacity:1"/></g></g><g id="g102"><g id="g104"><g id="g106" transform="scale(-1)"><g id="g110" transform="rotate(180,-36,-252)"><g id="g114" transform="translate(297.168,46.442)"><text id="text118" transform="matrix(1,0,0,-1,-72,-504)" style="font-variant:normal;font-size:10.95890045px;font-family:LatinModernMath-Regular-Identity;-inkscape-font-specification:LatinModernMath-Regular-Identity-H;writing-mode:lr-tb;fill:#262626;fill-opacity:1;fill-rule:nonzero;stroke:none"><tspan id="tspan116" x="0 5.479" y="0">40</tspan></text></g></g></g></g></g><g id="g122"><g id="g124" clip-path="url(#clipPath128)"><path id="path130" d="M 380.71523,63.36116 V 506.88603" style="fill:none;stroke:#fff;stroke-width:1.00002003;stroke-linecap:round;stroke-linejoin:round;stroke-miterlimit:10;stroke-dasharray:none;stroke-opacity:1"/></g></g><g id="g132"><g id="g134"><g id="g136" transform="scale(-1)"><g id="g140" transform="rotate(180,-36,-252)"><g id="g144" transform="translate(375.236,46.562)"><text id="text148" transform="matrix(1,0,0,-1,-72,-504)" style="font-variant:normal;font-size:10.95890045px;font-family:LatinModernMath-Regular-Identity;-inkscape-font-specification:LatinModernMath-Regular-Identity-H;writing-mode:lr-tb;fill:#262626;fill-opacity:1;fill-rule:nonzero;stroke:none"><tspan id="tspan146" x="0 5.479" y="0">60</tspan></text></g></g></g></g></g><g id="g152"><g id="g154" clip-path="url(#clipPath158)"><path id="path160" d="M 458.78288,63.36116 V 506.88603" style="fill:none;stroke:#fff;stroke-width:1.00002003;stroke-linecap:round;stroke-linejoin:round;stroke-miterlimit:10;stroke-dasharray:none;stroke-opacity:1"/></g></g><g id="g162"><g id="g164"><g id="g166" transform="scale(-1)"><g id="g170" transform="rotate(180,-36,-252)"><g id="g174" transform="translate(453.303,46.562)"><text id="text178" transform="matrix(1,0,0,-1,-72,-504)" style="font-variant:normal;font-size:10.95890045px;font-family:LatinModernMath-Regular-Identity;-inkscape-font-specification:LatinModernMath-Regular-Identity-H;writing-mode:lr-tb;fill:#262626;fill-opacity:1;fill-rule:nonzero;stroke:none"><tspan id="tspan176" x="0 5.479" y="0">80</tspan></text></g></g></g></g></g><g id="g182"><g id="g184" clip-path="url(#clipPath188)"><path id="path190" d="M 536.85052,63.36116 V 506.88603" style="fill:none;stroke:#fff;stroke-width:1.00002003;stroke-linecap:round;stroke-linejoin:round;stroke-miterlimit:10;stroke-dasharray:none;stroke-opacity:1"/></g></g><g id="g192"><g id="g194"><g id="g196" transform="scale(-1)"><g id="g200" transform="rotate(180,-36,-252)"><g id="g204" transform="translate(528.631,46.562)"><text id="text208" transform="matrix(1,0,0,-1,-72,-504)" style="font-variant:normal;font-size:10.95890045px;font-family:LatinModernMath-Regular-Identity;-inkscape-font-specification:LatinModernMath-Regular-Identity-H;writing-mode:lr-tb;fill:#262626;fill-opacity:1;fill-rule:nonzero;stroke:none"><tspan id="tspan206" x="0 5.479 10.959" y="0">100</tspan></text></g></g></g></g></g><g id="g212"><g id="g214" clip-path="url(#clipPath218)"><path id="path220" d="M 614.9182,63.36116 V 506.88603" style="fill:none;stroke:#fff;stroke-width:1.00002003;stroke-linecap:round;stroke-linejoin:round;stroke-miterlimit:10;stroke-dasharray:none;stroke-opacity:1"/></g></g><g id="g222"><g id="g224"><g id="g226" transform="scale(-1)"><g id="g230" transform="rotate(180,-36,-252)"><g id="g234" transform="translate(606.699,46.562)"><text id="text238" transform="matrix(1,0,0,-1,-72,-504)" style="font-variant:normal;font-size:10.95890045px;font-family:LatinModernMath-Regular-Identity;-inkscape-font-specification:LatinModernMath-Regular-Identity-H;writing-mode:lr-tb;fill:#262626;fill-opacity:1;fill-rule:nonzero;stroke:none"><tspan id="tspan236" x="0 5.479 10.959" y="0">120</tspan></text></g></g></g></g></g><g id="g242"><g id="g244"><g id="g246" transform="scale(-1)"><g id="g250" transform="rotate(180,-36,-252)"><g id="g254" transform="translate(360.71,34.359)"><text id="text258" transform="matrix(1,0,0,-1,-72,-504)" style="font-variant:normal;font-weight:400;font-size:11.9552002px;font-family:'Times New Roman';-inkscape-font-specification:TimesNewRomanPSMT;writing-mode:lr-tb;fill:#262626;fill-opacity:1;fill-rule:nonzero;stroke:none"><tspan id="tspan256" x="0 5.308 11.286" y="0">age</tspan></text></g></g></g></g></g><g id="g262"><g id="g264" clip-path="url(#clipPath268)"><path id="path270" d="M 90.00114,63.36116 H 648.00835" style="fill:none;stroke:#fff;stroke-width:1.00002003;stroke-linecap:round;stroke-linejoin:round;stroke-miterlimit:10;stroke-dasharray:none;stroke-opacity:1"/></g></g><g id="g272"><g id="g274"><g id="g276" transform="scale(-1)"><g id="g280" transform="rotate(180,-36,-252)"><g id="g284" transform="translate(55.443,59.542)"><text id="text288" transform="matrix(1,0,0,-1,-72,-504)" style="font-variant:normal;font-size:10.95890045px;font-family:LatinModernMath-Regular-Identity;-inkscape-font-specification:LatinModernMath-Regular-Identity-H;writing-mode:lr-tb;fill:#262626;fill-opacity:1;fill-rule:nonzero;stroke:none"><tspan id="tspan286" x="0 5.479 8.526 14.005 19.485" y="0">0.000</tspan></text></g></g></g></g></g><g id="g292"><g id="g294" clip-path="url(#clipPath298)"><path id="path300" d="M 90.00114,136.87712 H 648.00835" style="fill:none;stroke:#fff;stroke-width:1.00002003;stroke-linecap:round;stroke-linejoin:round;stroke-miterlimit:10;stroke-dasharray:none;stroke-opacity:1"/></g></g><g id="g302"><g id="g304"><g id="g306" transform="scale(-1)"><g id="g310" transform="rotate(180,-36,-252)"><g id="g314" transform="translate(55.443,133.058)"><text id="text318" transform="matrix(1,0,0,-1,-72,-504)" style="font-variant:normal;font-size:10.95890045px;font-family:LatinModernMath-Regular-Identity;-inkscape-font-specification:LatinModernMath-Regular-Identity-H;writing-mode:lr-tb;fill:#262626;fill-opacity:1;fill-rule:nonzero;stroke:none"><tspan id="tspan316" x="0 5.479 8.526 14.005 19.485" y="0">0.005</tspan></text></g></g></g></g></g><g id="g322"><g id="g324" clip-path="url(#clipPath328)"><path id="path330" d="M 90.00114,210.39308 H 648.00835" style="fill:none;stroke:#fff;stroke-width:1.00002003;stroke-linecap:round;stroke-linejoin:round;stroke-miterlimit:10;stroke-dasharray:none;stroke-opacity:1"/></g></g><g id="g332"><g id="g334"><g id="g336" transform="scale(-1)"><g id="g340" transform="rotate(180,-36,-252)"><g id="g344" transform="translate(55.443,206.574)"><text id="text348" transform="matrix(1,0,0,-1,-72,-504)" style="font-variant:normal;font-size:10.95890045px;font-family:LatinModernMath-Regular-Identity;-inkscape-font-specification:LatinModernMath-Regular-Identity-H;writing-mode:lr-tb;fill:#262626;fill-opacity:1;fill-rule:nonzero;stroke:none"><tspan id="tspan346" x="0 5.479 8.526 14.005 19.485" y="0">0.010</tspan></text></g></g></g></g></g><g id="g352"><g id="g354" clip-path="url(#clipPath358)"><path id="path360" d="M 90.00114,283.91014 H 648.00835" style="fill:none;stroke:#fff;stroke-width:1.00002003;stroke-linecap:round;stroke-linejoin:round;stroke-miterlimit:10;stroke-dasharray:none;stroke-opacity:1"/></g></g><g id="g362"><g id="g364"><g id="g366" transform="scale(-1)"><g id="g370" transform="rotate(180,-36,-252)"><g id="g374" transform="translate(55.443,280.091)"><text id="text378" transform="matrix(1,0,0,-1,-72,-504)" style="font-variant:normal;font-size:10.95890045px;font-family:LatinModernMath-Regular-Identity;-inkscape-font-specification:LatinModernMath-Regular-Identity-H;writing-mode:lr-tb;fill:#262626;fill-opacity:1;fill-rule:nonzero;stroke:none"><tspan id="tspan376" x="0 5.479 8.526 14.005 19.485" y="0">0.015</tspan></text></g></g></g></g></g><g id="g382"><g id="g384" clip-path="url(#clipPath388)"><path id="path390" d="M 90.00114,357.4261 H 648.00835" style="fill:none;stroke:#fff;stroke-width:1.00002003;stroke-linecap:round;stroke-linejoin:round;stroke-miterlimit:10;stroke-dasharray:none;stroke-opacity:1"/></g></g><g id="g392"><g id="g394"><g id="g396" transform="scale(-1)"><g id="g400" transform="rotate(180,-36,-252)"><g id="g404" transform="translate(55.443,353.607)"><text id="text408" transform="matrix(1,0,0,-1,-72,-504)" style="font-variant:normal;font-size:10.95890045px;font-family:LatinModernMath-Regular-Identity;-inkscape-font-specification:LatinModernMath-Regular-Identity-H;writing-mode:lr-tb;fill:#262626;fill-opacity:1;fill-rule:nonzero;stroke:none"><tspan id="tspan406" x="0 5.479 8.526 14.005 19.485" y="0">0.020</tspan></text></g></g></g></g></g><g id="g412"><g id="g414" clip-path="url(#clipPath418)"><path id="path420" d="M 90.00114,430.94206 H 648.00835" style="fill:none;stroke:#fff;stroke-width:1.00002003;stroke-linecap:round;stroke-linejoin:round;stroke-miterlimit:10;stroke-dasharray:none;stroke-opacity:1"/></g></g><g id="g422"><g id="g424"><g id="g426" transform="scale(-1)"><g id="g430" transform="rotate(180,-36,-252)"><g id="g434" transform="translate(55.443,427.123)"><text id="text438" transform="matrix(1,0,0,-1,-72,-504)" style="font-variant:normal;font-size:10.95890045px;font-family:LatinModernMath-Regular-Identity;-inkscape-font-specification:LatinModernMath-Regular-Identity-H;writing-mode:lr-tb;fill:#262626;fill-opacity:1;fill-rule:nonzero;stroke:none"><tspan id="tspan436" x="0 5.479 8.526 14.005 19.485" y="0">0.025</tspan></text></g></g></g></g></g><g id="g442"><g id="g444" clip-path="url(#clipPath448)"><path id="path450" d="M 90.00114,504.45912 H 648.00835" style="fill:none;stroke:#fff;stroke-width:1.00002003;stroke-linecap:round;stroke-linejoin:round;stroke-miterlimit:10;stroke-dasharray:none;stroke-opacity:1"/></g></g><g id="g452"><g id="g454"><g id="g456" transform="scale(-1)"><g id="g460" transform="rotate(180,-36,-252)"><g id="g464" transform="translate(55.443,500.64)"><text id="text468" transform="matrix(1,0,0,-1,-72,-504)" style="font-variant:normal;font-size:10.95890045px;font-family:LatinModernMath-Regular-Identity;-inkscape-font-specification:LatinModernMath-Regular-Identity-H;writing-mode:lr-tb;fill:#262626;fill-opacity:1;fill-rule:nonzero;stroke:none"><tspan id="tspan466" x="0 5.479 8.526 14.005 19.485" y="0">0.030</tspan></text></g></g></g></g></g><g id="g472"><g id="g474" clip-path="url(#clipPath478)"><path id="path480" d="m 146.51115,63.36116 h 8.90014 v 3.8969 h -8.90014 z" style="fill:#4c72b0;fill-opacity:.4;fill-rule:nonzero;stroke:#fff;stroke-width:1.00002003;stroke-linecap:butt;stroke-linejoin:miter;stroke-miterlimit:10;stroke-dasharray:none;stroke-opacity:.4"/></g></g><g id="g482"><g id="g484" clip-path="url(#clipPath488)"><path id="path490" d="m 155.41129,63.36116 h 8.90014 v 4.49675 h -8.90014 z" style="fill:#4c72b0;fill-opacity:.4;fill-rule:nonzero;stroke:#fff;stroke-width:1.00002003;stroke-linecap:butt;stroke-linejoin:miter;stroke-miterlimit:10;stroke-dasharray:none;stroke-opacity:.4"/></g></g><g id="g492"><g id="g494" clip-path="url(#clipPath498)"><path id="path500" d="m 164.31143,63.36116 h 8.89903 v 5.9953 h -8.89903 z" style="fill:#4c72b0;fill-opacity:.4;fill-rule:nonzero;stroke:#fff;stroke-width:1.00002003;stroke-linecap:butt;stroke-linejoin:miter;stroke-miterlimit:10;stroke-dasharray:none;stroke-opacity:.4"/></g></g><g id="g502"><g id="g504" clip-path="url(#clipPath508)"><path id="path510" d="m 173.21046,63.36116 h 8.90014 v 12.59048 h -8.90014 z" style="fill:#4c72b0;fill-opacity:.4;fill-rule:nonzero;stroke:#fff;stroke-width:1.00002003;stroke-linecap:butt;stroke-linejoin:miter;stroke-miterlimit:10;stroke-dasharray:none;stroke-opacity:.4"/></g></g><g id="g512"><g id="g514" clip-path="url(#clipPath518)"><path id="path520" d="m 182.1106,63.36116 h 8.89904 v 6.29524 h -8.89904 z" style="fill:#4c72b0;fill-opacity:.4;fill-rule:nonzero;stroke:#fff;stroke-width:1.00002003;stroke-linecap:butt;stroke-linejoin:miter;stroke-miterlimit:10;stroke-dasharray:none;stroke-opacity:.4"/></g></g><g id="g522"><g id="g524" clip-path="url(#clipPath528)"><path id="path530" d="m 191.00964,63.36116 h 8.90015 v 8.09372 h -8.90015 z" style="fill:#4c72b0;fill-opacity:.4;fill-rule:nonzero;stroke:#fff;stroke-width:1.00002003;stroke-linecap:butt;stroke-linejoin:miter;stroke-miterlimit:10;stroke-dasharray:none;stroke-opacity:.4"/></g></g><g id="g532"><g id="g534" clip-path="url(#clipPath538)"><path id="path540" d="m 199.90979,63.36116 h 8.90013 v 11.99173 h -8.90013 z" style="fill:#4c72b0;fill-opacity:.4;fill-rule:nonzero;stroke:#fff;stroke-width:1.00002003;stroke-linecap:butt;stroke-linejoin:miter;stroke-miterlimit:10;stroke-dasharray:none;stroke-opacity:.4"/></g></g><g id="g542"><g id="g544" clip-path="url(#clipPath548)"><path id="path550" d="m 208.80992,63.36116 h 8.89905 v 70.1508 h -8.89905 z" style="fill:#4c72b0;fill-opacity:.4;fill-rule:nonzero;stroke:#fff;stroke-width:1.00002003;stroke-linecap:butt;stroke-linejoin:miter;stroke-miterlimit:10;stroke-dasharray:none;stroke-opacity:.4"/></g></g><g id="g552"><g id="g554" clip-path="url(#clipPath558)"><path id="path560" d="m 217.70897,63.36116 h 8.90013 v 116.61807 h -8.90013 z" style="fill:#4c72b0;fill-opacity:.4;fill-rule:nonzero;stroke:#fff;stroke-width:1.00002003;stroke-linecap:butt;stroke-linejoin:miter;stroke-miterlimit:10;stroke-dasharray:none;stroke-opacity:.4"/></g></g><g id="g562"><g id="g564" clip-path="url(#clipPath568)"><path id="path570" d="m 226.6091,63.36116 h 8.90015 v 209.25378 h -8.90015 z" style="fill:#4c72b0;fill-opacity:.4;fill-rule:nonzero;stroke:#fff;stroke-width:1.00002003;stroke-linecap:butt;stroke-linejoin:miter;stroke-miterlimit:10;stroke-dasharray:none;stroke-opacity:.4"/></g></g><g id="g572"><g id="g574" clip-path="url(#clipPath578)"><path id="path580" d="m 235.50925,63.36116 h 8.89905 v 422.40558 h -8.89905 z" style="fill:#4c72b0;fill-opacity:.4;fill-rule:nonzero;stroke:#fff;stroke-width:1.00002003;stroke-linecap:butt;stroke-linejoin:miter;stroke-miterlimit:10;stroke-dasharray:none;stroke-opacity:.4"/></g></g><g id="g582"><g id="g584" clip-path="url(#clipPath588)"><path id="path590" d="m 244.4083,63.36116 h 8.90013 v 297.09282 h -8.90013 z" style="fill:#4c72b0;fill-opacity:.4;fill-rule:nonzero;stroke:#fff;stroke-width:1.00002003;stroke-linecap:butt;stroke-linejoin:miter;stroke-miterlimit:10;stroke-dasharray:none;stroke-opacity:.4"/></g></g><g id="g592"><g id="g594" clip-path="url(#clipPath598)"><path id="path600" d="m 253.30843,63.36116 h 8.89904 v 263.51596 h -8.89904 z" style="fill:#4c72b0;fill-opacity:.4;fill-rule:nonzero;stroke:#fff;stroke-width:1.00002003;stroke-linecap:butt;stroke-linejoin:miter;stroke-miterlimit:10;stroke-dasharray:none;stroke-opacity:.4"/></g></g><g id="g602"><g id="g604" clip-path="url(#clipPath608)"><path id="path610" d="m 262.20747,63.36116 h 8.90013 v 247.32739 h -8.90013 z" style="fill:#4c72b0;fill-opacity:.4;fill-rule:nonzero;stroke:#fff;stroke-width:1.00002003;stroke-linecap:butt;stroke-linejoin:miter;stroke-miterlimit:10;stroke-dasharray:none;stroke-opacity:.4"/></g></g><g id="g612"><g id="g614" clip-path="url(#clipPath618)"><path id="path620" d="m 271.1076,63.36116 h 8.90014 v 308.48468 h -8.90014 z" style="fill:#4c72b0;fill-opacity:.4;fill-rule:nonzero;stroke:#fff;stroke-width:1.00002003;stroke-linecap:butt;stroke-linejoin:miter;stroke-miterlimit:10;stroke-dasharray:none;stroke-opacity:.4"/></g></g><g id="g622"><g id="g624" clip-path="url(#clipPath628)"><path id="path630" d="m 280.00774,63.36116 h 8.89904 v 195.46356 h -8.89904 z" style="fill:#4c72b0;fill-opacity:.4;fill-rule:nonzero;stroke:#fff;stroke-width:1.00002003;stroke-linecap:butt;stroke-linejoin:miter;stroke-miterlimit:10;stroke-dasharray:none;stroke-opacity:.4"/></g></g><g id="g632"><g id="g634" clip-path="url(#clipPath638)"><path id="path640" d="m 288.90678,63.36116 h 8.90015 v 181.0735 h -8.90015 z" style="fill:#4c72b0;fill-opacity:.4;fill-rule:nonzero;stroke:#fff;stroke-width:1.00002003;stroke-linecap:butt;stroke-linejoin:miter;stroke-miterlimit:10;stroke-dasharray:none;stroke-opacity:.4"/></g></g><g id="g642"><g id="g644" clip-path="url(#clipPath648)"><path id="path650" d="m 297.80693,63.36116 h 8.90013 v 273.40927 h -8.90013 z" style="fill:#4c72b0;fill-opacity:.4;fill-rule:nonzero;stroke:#fff;stroke-width:1.00002003;stroke-linecap:butt;stroke-linejoin:miter;stroke-miterlimit:10;stroke-dasharray:none;stroke-opacity:.4"/></g></g><g id="g652"><g id="g654" clip-path="url(#clipPath658)"><path id="path660" d="m 306.70706,63.36116 h 8.89905 v 190.66689 h -8.89905 z" style="fill:#4c72b0;fill-opacity:.4;fill-rule:nonzero;stroke:#fff;stroke-width:1.00002003;stroke-linecap:butt;stroke-linejoin:miter;stroke-miterlimit:10;stroke-dasharray:none;stroke-opacity:.4"/></g></g><g id="g662"><g id="g664" clip-path="url(#clipPath668)"><path id="path670" d="m 315.60611,63.36116 h 8.90013 v 197.56198 h -8.90013 z" style="fill:#4c72b0;fill-opacity:.4;fill-rule:nonzero;stroke:#fff;stroke-width:1.00002003;stroke-linecap:butt;stroke-linejoin:miter;stroke-miterlimit:10;stroke-dasharray:none;stroke-opacity:.4"/></g></g><g id="g672"><g id="g674" clip-path="url(#clipPath678)"><path id="path680" d="m 324.50624,63.36116 h 8.89905 v 199.06053 h -8.89905 z" style="fill:#4c72b0;fill-opacity:.4;fill-rule:nonzero;stroke:#fff;stroke-width:1.00002003;stroke-linecap:butt;stroke-linejoin:miter;stroke-miterlimit:10;stroke-dasharray:none;stroke-opacity:.4"/></g></g><g id="g682"><g id="g684" clip-path="url(#clipPath688)"><path id="path690" d="m 333.40529,63.36116 h 8.90013 v 339.36327 h -8.90013 z" style="fill:#4c72b0;fill-opacity:.4;fill-rule:nonzero;stroke:#fff;stroke-width:1.00002003;stroke-linecap:butt;stroke-linejoin:miter;stroke-miterlimit:10;stroke-dasharray:none;stroke-opacity:.4"/></g></g><g id="g692"><g id="g694" clip-path="url(#clipPath698)"><path id="path700" d="m 342.30542,63.36116 h 8.90015 v 218.24731 h -8.90015 z" style="fill:#4c72b0;fill-opacity:.4;fill-rule:nonzero;stroke:#fff;stroke-width:1.00002003;stroke-linecap:butt;stroke-linejoin:miter;stroke-miterlimit:10;stroke-dasharray:none;stroke-opacity:.4"/></g></g><g id="g702"><g id="g704" clip-path="url(#clipPath708)"><path id="path710" d="m 351.20557,63.36116 h 8.89904 v 181.97328 h -8.89904 z" style="fill:#4c72b0;fill-opacity:.4;fill-rule:nonzero;stroke:#fff;stroke-width:1.00002003;stroke-linecap:butt;stroke-linejoin:miter;stroke-miterlimit:10;stroke-dasharray:none;stroke-opacity:.4"/></g></g><g id="g712"><g id="g714" clip-path="url(#clipPath718)"><path id="path720" d="m 360.10461,63.36116 h 8.90014 v 199.36047 h -8.90014 z" style="fill:#4c72b0;fill-opacity:.4;fill-rule:nonzero;stroke:#fff;stroke-width:1.00002003;stroke-linecap:butt;stroke-linejoin:miter;stroke-miterlimit:10;stroke-dasharray:none;stroke-opacity:.4"/></g></g><g id="g722"><g id="g724" clip-path="url(#clipPath728)"><path id="path730" d="m 369.00475,63.36116 h 8.90013 v 298.29143 h -8.90013 z" style="fill:#4c72b0;fill-opacity:.4;fill-rule:nonzero;stroke:#fff;stroke-width:1.00002003;stroke-linecap:butt;stroke-linejoin:miter;stroke-miterlimit:10;stroke-dasharray:none;stroke-opacity:.4"/></g></g><g id="g732"><g id="g734" clip-path="url(#clipPath738)"><path id="path740" d="m 377.90488,63.36116 h 8.89904 v 207.15538 h -8.89904 z" style="fill:#4c72b0;fill-opacity:.4;fill-rule:nonzero;stroke:#fff;stroke-width:1.00002003;stroke-linecap:butt;stroke-linejoin:miter;stroke-miterlimit:10;stroke-dasharray:none;stroke-opacity:.4"/></g></g><g id="g742"><g id="g744" clip-path="url(#clipPath748)"><path id="path750" d="m 386.80392,63.36116 h 8.90014 v 170.58031 h -8.90014 z" style="fill:#4c72b0;fill-opacity:.4;fill-rule:nonzero;stroke:#fff;stroke-width:1.00002003;stroke-linecap:butt;stroke-linejoin:miter;stroke-miterlimit:10;stroke-dasharray:none;stroke-opacity:.4"/></g></g><g id="g752"><g id="g754" clip-path="url(#clipPath758)"><path id="path760" d="m 395.70406,63.36116 h 8.90014 v 253.02278 h -8.90014 z" style="fill:#4c72b0;fill-opacity:.4;fill-rule:nonzero;stroke:#fff;stroke-width:1.00002003;stroke-linecap:butt;stroke-linejoin:miter;stroke-miterlimit:10;stroke-dasharray:none;stroke-opacity:.4"/></g></g><g id="g762"><g id="g764" clip-path="url(#clipPath768)"><path id="path770" d="m 404.6042,63.36116 h 8.89905 v 145.0983 h -8.89905 z" style="fill:#4c72b0;fill-opacity:.4;fill-rule:nonzero;stroke:#fff;stroke-width:1.00002003;stroke-linecap:butt;stroke-linejoin:miter;stroke-miterlimit:10;stroke-dasharray:none;stroke-opacity:.4"/></g></g><g id="g772"><g id="g774" clip-path="url(#clipPath778)"><path id="path780" d="m 413.50325,63.36116 h 8.90013 v 140.00168 h -8.90013 z" style="fill:#4c72b0;fill-opacity:.4;fill-rule:nonzero;stroke:#fff;stroke-width:1.00002003;stroke-linecap:butt;stroke-linejoin:miter;stroke-miterlimit:10;stroke-dasharray:none;stroke-opacity:.4"/></g></g><g id="g782"><g id="g784" clip-path="url(#clipPath788)"><path id="path790" d="m 422.40338,63.36116 h 8.89903 v 128.90973 h -8.89903 z" style="fill:#4c72b0;fill-opacity:.4;fill-rule:nonzero;stroke:#fff;stroke-width:1.00002003;stroke-linecap:butt;stroke-linejoin:miter;stroke-miterlimit:10;stroke-dasharray:none;stroke-opacity:.4"/></g></g><g id="g792"><g id="g794" clip-path="url(#clipPath798)"><path id="path800" d="m 431.30241,63.36116 h 8.90015 v 189.16722 h -8.90015 z" style="fill:#4c72b0;fill-opacity:.4;fill-rule:nonzero;stroke:#fff;stroke-width:1.00002003;stroke-linecap:butt;stroke-linejoin:miter;stroke-miterlimit:10;stroke-dasharray:none;stroke-opacity:.4"/></g></g><g id="g802"><g id="g804" clip-path="url(#clipPath808)"><path id="path810" d="m 440.20256,63.36116 h 8.90014 v 122.31456 h -8.90014 z" style="fill:#4c72b0;fill-opacity:.4;fill-rule:nonzero;stroke:#fff;stroke-width:1.00002003;stroke-linecap:butt;stroke-linejoin:miter;stroke-miterlimit:10;stroke-dasharray:none;stroke-opacity:.4"/></g></g><g id="g812"><g id="g814" clip-path="url(#clipPath818)"><path id="path820" d="m 449.1027,63.36116 h 8.89904 v 157.98982 h -8.89904 z" style="fill:#4c72b0;fill-opacity:.4;fill-rule:nonzero;stroke:#fff;stroke-width:1.00002003;stroke-linecap:butt;stroke-linejoin:miter;stroke-miterlimit:10;stroke-dasharray:none;stroke-opacity:.4"/></g></g><g id="g822"><g id="g824" clip-path="url(#clipPath828)"><path id="path830" d="m 458.00174,63.36116 h 8.90015 v 193.36516 h -8.90015 z" style="fill:#4c72b0;fill-opacity:.4;fill-rule:nonzero;stroke:#fff;stroke-width:1.00002003;stroke-linecap:butt;stroke-linejoin:miter;stroke-miterlimit:10;stroke-dasharray:none;stroke-opacity:.4"/></g></g><g id="g832"><g id="g834" clip-path="url(#clipPath838)"><path id="path840" d="m 466.90189,63.36116 h 8.90013 V 168.8873 h -8.90013 z" style="fill:#4c72b0;fill-opacity:.4;fill-rule:nonzero;stroke:#fff;stroke-width:1.00002003;stroke-linecap:butt;stroke-linejoin:miter;stroke-miterlimit:10;stroke-dasharray:none;stroke-opacity:.4"/></g></g><g id="g842"><g id="g844" clip-path="url(#clipPath848)"><path id="path850" d="m 475.80202,63.36116 h 8.89903 v 68.05238 h -8.89903 z" style="fill:#4c72b0;fill-opacity:.4;fill-rule:nonzero;stroke:#fff;stroke-width:1.00002003;stroke-linecap:butt;stroke-linejoin:miter;stroke-miterlimit:10;stroke-dasharray:none;stroke-opacity:.4"/></g></g><g id="g852"><g id="g854" clip-path="url(#clipPath858)"><path id="path860" d="m 484.70105,63.36116 h 8.90015 v 49.7654 h -8.90015 z" style="fill:#4c72b0;fill-opacity:.4;fill-rule:nonzero;stroke:#fff;stroke-width:1.00002003;stroke-linecap:butt;stroke-linejoin:miter;stroke-miterlimit:10;stroke-dasharray:none;stroke-opacity:.4"/></g></g><g id="g862"><g id="g864" clip-path="url(#clipPath868)"><path id="path870" d="m 493.6012,63.36116 h 8.89903 V 99.6352 h -8.89903 z" style="fill:#4c72b0;fill-opacity:.4;fill-rule:nonzero;stroke:#fff;stroke-width:1.00002003;stroke-linecap:butt;stroke-linejoin:miter;stroke-miterlimit:10;stroke-dasharray:none;stroke-opacity:.4"/></g></g><g id="g872"><g id="g874" clip-path="url(#clipPath878)"><path id="path880" d="m 502.50023,63.36116 h 8.90015 V 74.4531 h -8.90015 z" style="fill:#4c72b0;fill-opacity:.4;fill-rule:nonzero;stroke:#fff;stroke-width:1.00002003;stroke-linecap:butt;stroke-linejoin:miter;stroke-miterlimit:10;stroke-dasharray:none;stroke-opacity:.4"/></g></g><g id="g882"><g id="g884" clip-path="url(#clipPath888)"><path id="path890" d="m 511.40038,63.36116 h 8.90014 v 3.8969 h -8.90014 z" style="fill:#4c72b0;fill-opacity:.4;fill-rule:nonzero;stroke:#fff;stroke-width:1.00002003;stroke-linecap:butt;stroke-linejoin:miter;stroke-miterlimit:10;stroke-dasharray:none;stroke-opacity:.4"/></g></g><g id="g892"><g id="g894" clip-path="url(#clipPath898)"><path id="path900" d="m 520.30052,63.36116 h 8.89903 v 1.49855 h -8.89903 z" style="fill:#4c72b0;fill-opacity:.4;fill-rule:nonzero;stroke:#fff;stroke-width:1.00002003;stroke-linecap:butt;stroke-linejoin:miter;stroke-miterlimit:10;stroke-dasharray:none;stroke-opacity:.4"/></g></g><g id="g902"><g id="g904" clip-path="url(#clipPath908)"><path id="path910" d="m 529.19955,63.36116 h 8.90015 v 0.29993 h -8.90015 z" style="fill:#4c72b0;fill-opacity:.4;fill-rule:nonzero;stroke:#fff;stroke-width:1.00002003;stroke-linecap:butt;stroke-linejoin:miter;stroke-miterlimit:10;stroke-dasharray:none;stroke-opacity:.4"/></g></g><g id="g912"><g id="g914" clip-path="url(#clipPath918)"><path id="path920" d="m 538.0997,63.36116 h 8.90013 v 0 z" style="fill:#4c72b0;fill-opacity:.4;fill-rule:nonzero;stroke:#fff;stroke-width:1.00002003;stroke-linecap:butt;stroke-linejoin:miter;stroke-miterlimit:10;stroke-dasharray:none;stroke-opacity:.4"/></g></g><g id="g922"><g id="g924" clip-path="url(#clipPath928)"><path id="path930" d="m 546.99983,63.36116 h 8.89903 v 0 z" style="fill:#4c72b0;fill-opacity:.4;fill-rule:nonzero;stroke:#fff;stroke-width:1.00002003;stroke-linecap:butt;stroke-linejoin:miter;stroke-miterlimit:10;stroke-dasharray:none;stroke-opacity:.4"/></g></g><g id="g932"><g id="g934" clip-path="url(#clipPath938)"><path id="path940" d="m 555.89886,63.36116 h 8.90017 v 0.59876 h -8.90017 z" style="fill:#4c72b0;fill-opacity:.4;fill-rule:nonzero;stroke:#fff;stroke-width:1.00002003;stroke-linecap:butt;stroke-linejoin:miter;stroke-miterlimit:10;stroke-dasharray:none;stroke-opacity:.4"/></g></g><g id="g942"><g id="g944" clip-path="url(#clipPath948)"><path id="path950" d="m 564.79903,63.36116 h 8.89903 v 0.59876 h -8.89903 z" style="fill:#4c72b0;fill-opacity:.4;fill-rule:nonzero;stroke:#fff;stroke-width:1.00002003;stroke-linecap:butt;stroke-linejoin:miter;stroke-miterlimit:10;stroke-dasharray:none;stroke-opacity:.4"/></g></g><g id="g952"><g id="g954" clip-path="url(#clipPath958)"><path id="path960" d="m 573.69806,63.36116 h 8.90013 v 0.59876 h -8.90013 z" style="fill:#4c72b0;fill-opacity:.4;fill-rule:nonzero;stroke:#fff;stroke-width:1.00002003;stroke-linecap:butt;stroke-linejoin:miter;stroke-miterlimit:10;stroke-dasharray:none;stroke-opacity:.4"/></g></g><g id="g962"><g id="g964" clip-path="url(#clipPath968)"><path id="path970" d="m 582.59819,63.36116 h 8.90015 v 0.29993 h -8.90015 z" style="fill:#4c72b0;fill-opacity:.4;fill-rule:nonzero;stroke:#fff;stroke-width:1.00002003;stroke-linecap:butt;stroke-linejoin:miter;stroke-miterlimit:10;stroke-dasharray:none;stroke-opacity:.4"/></g></g><g id="g972"><g id="g974" clip-path="url(#clipPath978)"><path id="path980" d="m 115.3656,63.36446 5.12299,0.01208 5.1241,0.04395 5.1241,0.12744 5.12408,0.29992 5.1241,0.579 5.12408,0.90857 5.12409,1.17008 5.12408,1.25793 5.1241,1.17117 5.12409,0.99866 5.12408,0.8141 5.12409,0.65149 5.1241,0.62843 5.12408,1.05361 5.12409,2.43678 5.1241,5.39546 5.12408,10.46462 5.12408,17.80798 5.12409,26.89267 5.1241,36.30919 5.123,43.9294 5.12408,47.36486 5.12409,44.79404 5.1241,35.94223 5.12408,22.59148 5.12409,8.1212 5.12408,-3.95293 5.1241,-11.68631 5.12408,-15.3437 5.12409,-16.31821 5.1241,-15.61508 5.12408,-13.58696 5.12409,-10.62831 5.12408,-7.39829 5.1241,-4.33525 5.12409,-1.50955 5.12408,1.06239 5.1241,3.18387 5.1241,4.6407 5.12299,5.45038 5.12408,5.8613 5.12409,5.81293 5.1241,4.55389 5.12408,1.42604 5.12408,-2.75101 5.12409,-5.73713 5.1241,-5.85689 5.12408,-3.58378 5.12409,-0.94594 5.1241,0.15602 5.12408,-1.04592 5.12409,-3.97052 5.1241,-7.05659 5.1241,-8.90125 5.12408,-9.34399 5.12409,-9.20227 5.12409,-9.05504 5.12409,-8.6925 5.12409,-7.68174 5.12298,-5.99861 5.12408,-3.9892 5.1241,-1.90943 5.12409,0.24608 5.12408,2.1182 5.1241,2.5005 5.12409,0.21973 5.1241,-4.45829 5.12408,-9.87903 5.1241,-14.38458 5.12409,-17.19603 5.12408,-18.22327 5.12408,-17.72447 5.1241,-16.1622 5.12409,-14.01433 5.12408,-11.6039 5.1241,-9.14953 5.12408,-6.86545 5.12409,-4.91645 5.12299,-3.36515 5.12408,-2.19071 5.1241,-1.33485 5.1241,-0.74379 5.12409,-0.36147 5.1241,-0.12962 5.12408,0.0055 5.12408,0.07141 5.12409,0.08898 5.1241,0.07582 5.12408,0.03955 5.12409,-0.0055 5.1241,-0.05384 5.12408,-0.08679 5.12409,-0.09668 5.12408,-0.089 5.1241,-0.06812 5.12408,-0.04504 5.12409,-0.02417 5.12408,-0.0099 5.12301,-0.0033" style="fill:none;stroke:#4c72b0;stroke-width:1.50002003;stroke-linecap:round;stroke-linejoin:round;stroke-miterlimit:10;stroke-dasharray:none;stroke-opacity:1"/></g></g><g id="g982"><path id="path984" d="M 90.00114,63.36116 V 506.88603" style="fill:none;stroke:#fff;stroke-width:1.25;stroke-linecap:square;stroke-linejoin:miter;stroke-miterlimit:10;stroke-dasharray:none;stroke-opacity:1"/></g><g id="g986"><path id="path988" d="M 648.00835,63.36116 V 506.88603" style="fill:none;stroke:#fff;stroke-width:1.25;stroke-linecap:square;stroke-linejoin:miter;stroke-miterlimit:10;stroke-dasharray:none;stroke-opacity:1"/></g><g id="g990"><path id="path992" d="M 90.00114,63.36116 H 648.00835" style="fill:none;stroke:#fff;stroke-width:1.25;stroke-linecap:square;stroke-linejoin:miter;stroke-miterlimit:10;stroke-dasharray:none;stroke-opacity:1"/></g><g id="g994"><path id="path996" d="M 90.00114,506.88603 H 648.00835" style="fill:none;stroke:#fff;stroke-width:1.25;stroke-linecap:square;stroke-linejoin:miter;stroke-miterlimit:10;stroke-dasharray:none;stroke-opacity:1"/></g><g id="g998"><g id="g1000"><g id="g1002" transform="scale(-1)"><g id="g1006" transform="rotate(180,-36,-252)"><g id="g1010" transform="translate(349.58,512.887)"><text id="text1014" transform="matrix(1,0,0,-1,-72,-504)" style="font-variant:normal;font-weight:400;font-size:11.9552002px;font-family:'Times New Roman';-inkscape-font-specification:TimesNewRomanPSMT;writing-mode:lr-tb;fill:#262626;fill-opacity:1;fill-rule:nonzero;stroke:none"><tspan id="tspan1012" x="0 5.978 11.955 20.252 26.23 29.553 35.531" y="0">kdeplot</tspan></text></g></g></g></g></g></g></g></g></g></g></svg>