<svg xmlns="http://www.w3.org/2000/svg" xmlns:svg="http://www.w3.org/2000/svg" id="svg2" width="960" height="768" version="1.1" viewBox="0 0 960 768" xml:space="preserve"><metadata id="metadata8"/><defs id="defs6"><clipPath id="clipPath22" clipPathUnits="userSpaceOnUse"><path id="path20" d="M 0,0 H 720.00928 V 576.0074 H 0 Z"/></clipPath></defs><g id="g10" transform="matrix(1.3333333,0,0,-1.3333333,0,768)"><g id="g12" transform="translate(72,504)"><g id="g14" transform="translate(-72,-504)"><g id="g16"><g id="g18" clip-path="url(#clipPath22)"><g id="g24"><path id="path26" d="M 0,0 H 720.00928 V 576.0074 H 0 Z" style="fill:#fff;fill-opacity:1;fill-rule:nonzero;stroke:none"/></g><g id="g28"><g id="g30"><g id="g32" transform="scale(-1)"><g id="g36" transform="rotate(180,-36,-252)"><g id="g40" transform="rotate(90,-136.1,-299.239)"><text id="text44" transform="matrix(1,0,0,-1,-72,-504)" style="font-variant:normal;font-weight:400;font-size:11.9552002px;font-family:'Times New Roman';-inkscape-font-specification:TimesNewRomanPSMT;writing-mode:lr-tb;fill:#262626;fill-opacity:1;fill-rule:nonzero;stroke:none"><tspan id="tspan42" x="0 5.978 11.286 17.263 23.241 28.549" y="0">gender</tspan></text></g></g></g></g></g><g id="g48"><path id="path50" d="m 546.41536,285.12415 c 0,46.53428 -18.30896,91.25032 -50.94536,124.42176 -32.63531,33.17145 -77.04701,52.20661 -123.57582,52.96468 -46.52769,0.75807 -91.53598,-16.82029 -125.23476,-48.91177 -33.6988,-32.09037 -53.45468,-76.18567 -54.97081,-122.69579 l 177.31614,-5.77888 z" style="fill:#4c72b0;fill-opacity:1;fill-rule:nonzero;stroke:#fff;stroke-width:1.00002003;stroke-linecap:butt;stroke-linejoin:miter;stroke-miterlimit:10;stroke-dasharray:none;stroke-opacity:1"/></g><g id="g52"><path id="path54" d="m 191.68861,290.90303 c -1.22279,-37.50891 9.48792,-74.45641 30.58194,-105.49649 21.09403,-31.04007 51.50237,-54.59946 86.82717,-67.27234 35.3248,-12.6729 73.77524,-13.81547 109.78999,-3.26298 36.01584,10.5514 67.77004,32.26506 90.67024,61.99664 l -140.5532,108.25629 z" style="fill:#dd8452;fill-opacity:1;fill-rule:nonzero;stroke:#fff;stroke-width:1.00002003;stroke-linecap:butt;stroke-linejoin:miter;stroke-miterlimit:10;stroke-dasharray:none;stroke-opacity:1"/></g><g id="g56"><path id="path58" d="m 509.55795,176.86786 c 11.86757,15.40854 21.12149,32.66498 27.39035,51.07721 6.2689,18.41112 9.46706,37.72863 9.46706,57.17908 H 369.00475 Z" style="fill:#55a868;fill-opacity:1;fill-rule:nonzero;stroke:#fff;stroke-width:1.00002003;stroke-linecap:butt;stroke-linejoin:miter;stroke-miterlimit:10;stroke-dasharray:none;stroke-opacity:1"/></g><g id="g60"><g id="g62"><g id="g64" transform="scale(-1)"><g id="g68" transform="rotate(180,-36,-252)"><g id="g72" transform="translate(372.184,476.538)"><text id="text76" transform="matrix(1,0,0,-1,-72,-504)" style="font-variant:normal;font-weight:400;font-size:10.95890045px;font-family:'Times New Roman';-inkscape-font-specification:TimesNewRomanPSMT;writing-mode:lr-tb;fill:#262626;fill-opacity:1;fill-rule:nonzero;stroke:none"><tspan id="tspan74" x="0 6.093 12.789 22.531 30.444 37.14" y="0">FEMALE</tspan></text></g></g></g></g></g><g id="g80"><g id="g82"><g id="g84" transform="scale(-1)"><g id="g88" transform="rotate(180,-36,-252)"><g id="g92" transform="translate(333.606,388.683)"><text id="text96" transform="matrix(1,0,0,-1,-72,-504)" style="font-variant:normal;font-weight:400;font-size:11.9552002px;font-family:'Times New Roman';-inkscape-font-specification:TimesNewRomanPSMT;writing-mode:lr-tb;fill:#262626;fill-opacity:1;fill-rule:nonzero;stroke:none"><tspan id="tspan94" x="0 5.978 11.955 14.944 20.922 26.899 36.858 40.839 46.374 52.352 58.329 64.307 70.285" y="0">49.48%(11928)</tspan></text></g></g></g></g></g><g id="g100"><g id="g102"><g id="g104" transform="scale(-1)"><g id="g108" transform="rotate(180,-36,-252)"><g id="g112" transform="translate(272.06,97.724)"><text id="text116" transform="matrix(1,0,0,-1,-72,-504)" style="font-variant:normal;font-weight:400;font-size:10.95890045px;font-family:'Times New Roman';-inkscape-font-specification:TimesNewRomanPSMT;writing-mode:lr-tb;fill:#262626;fill-opacity:1;fill-rule:nonzero;stroke:none"><tspan id="tspan114" x="0 9.742 17.655 24.351" y="0">MALE</tspan></text></g></g></g></g></g><g id="g120"><g id="g122"><g id="g124" transform="scale(-1)"><g id="g128" transform="rotate(180,-36,-252)"><g id="g132" transform="translate(298.695,182.058)"><text id="text136" transform="matrix(1,0,0,-1,-72,-504)" style="font-variant:normal;font-weight:400;font-size:11.9552002px;font-family:'Times New Roman';-inkscape-font-specification:TimesNewRomanPSMT;writing-mode:lr-tb;fill:#262626;fill-opacity:1;fill-rule:nonzero;stroke:none"><tspan id="tspan134" x="0 5.978 11.955 14.944 20.922 26.899 36.858 40.839 46.817 52.794 58.772 64.749" y="0">40.07%(9660)</tspan></text></g></g></g></g></g><g id="g140"><g id="g142"><g id="g144" transform="scale(-1)"><g id="g148" transform="rotate(180,-36,-252)"><g id="g152" transform="translate(553.742,218.497)"><text id="text156" transform="matrix(1,0,0,-1,-72,-504)" style="font-variant:normal;font-weight:400;font-size:10.95890045px;font-family:'Times New Roman';-inkscape-font-specification:TimesNewRomanPSMT;writing-mode:lr-tb;fill:#262626;fill-opacity:1;fill-rule:nonzero;stroke:none"><tspan id="tspan154" x="0 5.479 10.959 16.438 21.918 27.397 35.31" y="0">unkonwn</tspan></text></g></g></g></g></g><g id="g160"><g id="g162"><g id="g164" transform="scale(-1)"><g id="g168" transform="rotate(180,-36,-252)"><g id="g172" transform="translate(435.405,247.945)"><text id="text176" transform="matrix(1,0,0,-1,-72,-504)" style="font-variant:normal;font-weight:400;font-size:11.9552002px;font-family:'Times New Roman';-inkscape-font-specification:TimesNewRomanPSMT;writing-mode:lr-tb;fill:#262626;fill-opacity:1;fill-rule:nonzero;stroke:none"><tspan id="tspan174" x="0 5.978 11.955 14.944 20.922 26.899 36.858 40.839 46.817 52.794 58.772 64.749" y="0">10.45%(2518)</tspan></text></g></g></g></g></g><g id="g180"><g id="g182"><g id="g184" transform="scale(-1)"><g id="g188" transform="rotate(180,-36,-252)"><g id="g192" transform="translate(322.354,512.887)"><text id="text196" transform="matrix(1,0,0,-1,-72,-504)" style="font-variant:normal;font-weight:400;font-size:11.9552002px;font-family:'Times New Roman';-inkscape-font-specification:TimesNewRomanPSMT;writing-mode:lr-tb;fill:#262626;fill-opacity:1;fill-rule:nonzero;stroke:none"><tspan id="tspan194" x="0 8.632 13.94 19.917 25.895 31.203 38.173 44.151 47.474 52.125 55.448 59.429 62.753 68.73 74.708 78.032 81.355 87.333" y="0">Genderdistribution</tspan></text></g></g></g></g></g><g id="g200"><path id="path202" d="m 503.86696,451.42853 h 79.20034 c 1.46706,-2e-5 2.20058,0.73314 2.2006,2.19951 v 45.55868 c -2e-5,1.46633 -0.73354,2.19948 -2.2006,2.1995 h -79.20034 c -1.46709,-2e-5 -2.20062,-0.73317 -2.20061,-2.1995 v -45.55868 c -1e-5,-1.46637 0.73352,-2.19953 2.20061,-2.19951 z" style="fill:#eaeaf2;fill-opacity:.8;fill-rule:nonzero;stroke:#ccc;stroke-width:1.00002003;stroke-linecap:butt;stroke-linejoin:miter;stroke-miterlimit:10;stroke-dasharray:none;stroke-opacity:.8"/></g><g id="g204"><path id="path206" d="m 506.06645,489.2868 h 22.00041 v 7.69933 h -22.00041 z" style="fill:#4c72b0;fill-opacity:1;fill-rule:nonzero;stroke:#fff;stroke-width:1.00002003;stroke-linecap:butt;stroke-linejoin:miter;stroke-miterlimit:10;stroke-dasharray:none;stroke-opacity:1"/></g><g id="g208"><g id="g210"><g id="g212" transform="scale(-1)"><g id="g216" transform="rotate(180,-36,-252)"><g id="g220" transform="translate(536.867,489.287)"><text id="text224" transform="matrix(1,0,0,-1,-72,-504)" style="font-variant:normal;font-weight:400;font-size:10.95890045px;font-family:'Times New Roman';-inkscape-font-specification:TimesNewRomanPSMT;writing-mode:lr-tb;fill:#262626;fill-opacity:1;fill-rule:nonzero;stroke:none"><tspan id="tspan222" x="0 6.093 12.789 22.531 30.444 37.14" y="0">FEMALE</tspan></text></g></g></g></g></g><g id="g228"><path id="path230" d="m 506.06645,473.73328 h 22.00041 v 7.70041 h -22.00041 z" style="fill:#dd8452;fill-opacity:1;fill-rule:nonzero;stroke:#fff;stroke-width:1.00002003;stroke-linecap:butt;stroke-linejoin:miter;stroke-miterlimit:10;stroke-dasharray:none;stroke-opacity:1"/></g><g id="g232"><g id="g234"><g id="g236" transform="scale(-1)"><g id="g240" transform="rotate(180,-36,-252)"><g id="g244" transform="translate(536.867,473.733)"><text id="text248" transform="matrix(1,0,0,-1,-72,-504)" style="font-variant:normal;font-weight:400;font-size:10.95890045px;font-family:'Times New Roman';-inkscape-font-specification:TimesNewRomanPSMT;writing-mode:lr-tb;fill:#262626;fill-opacity:1;fill-rule:nonzero;stroke:none"><tspan id="tspan246" x="0 9.742 17.655 24.351" y="0">MALE</tspan></text></g></g></g></g></g><g id="g252"><path id="path254" d="m 506.06645,458.18083 h 22.00041 v 7.70041 h -22.00041 z" style="fill:#55a868;fill-opacity:1;fill-rule:nonzero;stroke:#fff;stroke-width:1.00002003;stroke-linecap:butt;stroke-linejoin:miter;stroke-miterlimit:10;stroke-dasharray:none;stroke-opacity:1"/></g><g id="g256"><g id="g258"><g id="g260" transform="scale(-1)"><g id="g264" transform="rotate(180,-36,-252)"><g id="g268" transform="translate(536.867,458.181)"><text id="text272" transform="matrix(1,0,0,-1,-72,-504)" style="font-variant:normal;font-weight:400;font-size:10.95890045px;font-family:'Times New Roman';-inkscape-font-specification:TimesNewRomanPSMT;writing-mode:lr-tb;fill:#262626;fill-opacity:1;fill-rule:nonzero;stroke:none"><tspan id="tspan270" x="0 5.479 10.959 16.438 21.918 27.397 35.31" y="0">unkonwn</tspan></text></g></g></g></g></g></g></g></g></g></g></svg>